<mxfile host="65bd71144e">
    <diagram id="VtvmASgvtuRMXtVJ9Wd2" name="ページ1">
        <mxGraphModel dx="386" dy="566" grid="1" gridSize="10" guides="1" tooltips="1" connect="1" arrows="1" fold="1" page="1" pageScale="1" pageWidth="827" pageHeight="1169" math="0" shadow="0">
            <root>
                <mxCell id="0"/>
                <mxCell id="1" parent="0"/>
                <mxCell id="21" value="プレイヤー" style="html=1;" parent="1" vertex="1">
                    <mxGeometry x="120" y="80" width="110" height="50" as="geometry"/>
                </mxCell>
                <mxCell id="22" value="対戦（開始）" style="html=1;" parent="1" vertex="1">
                    <mxGeometry x="320" y="80" width="110" height="50" as="geometry"/>
                </mxCell>
                <mxCell id="29" value="対戦結果" style="html=1;" parent="1" vertex="1">
                    <mxGeometry x="320" y="180" width="110" height="50" as="geometry"/>
                </mxCell>
                <mxCell id="30" value="盤面" style="html=1;" parent="1" vertex="1">
                    <mxGeometry x="490" y="180" width="110" height="50" as="geometry"/>
                </mxCell>
                <mxCell id="31" value="石" style="html=1;" parent="1" vertex="1">
                    <mxGeometry x="660" y="270" width="110" height="50" as="geometry"/>
                </mxCell>
                <mxCell id="32" value="白と黒" style="shape=note;whiteSpace=wrap;html=1;backgroundOutline=1;darkOpacity=0.05;fillColor=#FFCC99;" parent="1" vertex="1">
                    <mxGeometry x="690" y="370" width="80" height="90" as="geometry"/>
                </mxCell>
                <mxCell id="33" value="" style="endArrow=none;dashed=1;html=1;dashPattern=1 3;strokeWidth=2;exitX=0.5;exitY=1;exitDx=0;exitDy=0;entryX=0;entryY=0;entryDx=25;entryDy=0;entryPerimeter=0;" parent="1" source="31" target="32" edge="1">
                    <mxGeometry width="50" height="50" relative="1" as="geometry">
                        <mxPoint x="670" y="180" as="sourcePoint"/>
                        <mxPoint x="720" y="380" as="targetPoint"/>
                    </mxGeometry>
                </mxCell>
                <mxCell id="34" value="ターン" style="html=1;" parent="1" vertex="1">
                    <mxGeometry x="490" y="80" width="110" height="50" as="geometry"/>
                </mxCell>
                <mxCell id="35" value="" style="endArrow=none;html=1;edgeStyle=orthogonalEdgeStyle;entryX=0;entryY=0.5;entryDx=0;entryDy=0;exitX=1;exitY=0.5;exitDx=0;exitDy=0;" parent="1" source="22" target="34" edge="1">
                    <mxGeometry relative="1" as="geometry">
                        <mxPoint x="430" y="100" as="sourcePoint"/>
                        <mxPoint x="590" y="100" as="targetPoint"/>
                    </mxGeometry>
                </mxCell>
                <mxCell id="36" value="1" style="edgeLabel;resizable=0;html=1;align=left;verticalAlign=bottom;fillColor=#FFCC99;" parent="35" connectable="0" vertex="1">
                    <mxGeometry x="-1" relative="1" as="geometry"/>
                </mxCell>
                <mxCell id="37" value="*" style="edgeLabel;resizable=0;html=1;align=right;verticalAlign=bottom;fillColor=#FFCC99;" parent="35" connectable="0" vertex="1">
                    <mxGeometry x="1" relative="1" as="geometry"/>
                </mxCell>
                <mxCell id="39" value="" style="endArrow=none;html=1;edgeStyle=orthogonalEdgeStyle;entryX=0;entryY=0.5;entryDx=0;entryDy=0;exitX=1;exitY=0.5;exitDx=0;exitDy=0;" parent="1" source="21" target="22" edge="1">
                    <mxGeometry relative="1" as="geometry">
                        <mxPoint x="260" y="120" as="sourcePoint"/>
                        <mxPoint x="299.9999999999999" y="104.66" as="targetPoint"/>
                    </mxGeometry>
                </mxCell>
                <mxCell id="40" value="1" style="edgeLabel;resizable=0;html=1;align=left;verticalAlign=bottom;fillColor=#FFCC99;" parent="39" connectable="0" vertex="1">
                    <mxGeometry x="-1" relative="1" as="geometry"/>
                </mxCell>
                <mxCell id="41" value="*&amp;nbsp;" style="edgeLabel;resizable=0;html=1;align=right;verticalAlign=bottom;fillColor=#FFCC99;" parent="39" connectable="0" vertex="1">
                    <mxGeometry x="1" relative="1" as="geometry"/>
                </mxCell>
                <mxCell id="44" value="" style="endArrow=none;html=1;edgeStyle=orthogonalEdgeStyle;entryX=0.5;entryY=0;entryDx=0;entryDy=0;" parent="1" target="29" edge="1">
                    <mxGeometry relative="1" as="geometry">
                        <mxPoint x="375" y="130" as="sourcePoint"/>
                        <mxPoint x="330.0000000000001" y="115.00000000000011" as="targetPoint"/>
                    </mxGeometry>
                </mxCell>
                <mxCell id="45" value="1" style="edgeLabel;resizable=0;html=1;align=left;verticalAlign=bottom;fillColor=#FFCC99;" parent="44" connectable="0" vertex="1">
                    <mxGeometry x="-1" relative="1" as="geometry"/>
                </mxCell>
                <mxCell id="46" value="0..1" style="edgeLabel;resizable=0;html=1;align=right;verticalAlign=bottom;fillColor=#FFCC99;" parent="44" connectable="0" vertex="1">
                    <mxGeometry x="1" relative="1" as="geometry"/>
                </mxCell>
                <mxCell id="50" value="マス目" style="html=1;" parent="1" vertex="1">
                    <mxGeometry x="490" y="270" width="110" height="50" as="geometry"/>
                </mxCell>
                <mxCell id="51" value="" style="endArrow=none;html=1;edgeStyle=orthogonalEdgeStyle;entryX=0.5;entryY=0;entryDx=0;entryDy=0;exitX=0.5;exitY=1;exitDx=0;exitDy=0;" parent="1" source="34" target="30" edge="1">
                    <mxGeometry relative="1" as="geometry">
                        <mxPoint x="385" y="140.0000000000001" as="sourcePoint"/>
                        <mxPoint x="385" y="190.0000000000001" as="targetPoint"/>
                        <Array as="points">
                            <mxPoint x="545" y="160"/>
                            <mxPoint x="545" y="160"/>
                        </Array>
                    </mxGeometry>
                </mxCell>
                <mxCell id="52" value="1" style="edgeLabel;resizable=0;html=1;align=left;verticalAlign=bottom;fillColor=#FFCC99;" parent="51" connectable="0" vertex="1">
                    <mxGeometry x="-1" relative="1" as="geometry"/>
                </mxCell>
                <mxCell id="53" value="1" style="edgeLabel;resizable=0;html=1;align=right;verticalAlign=bottom;fillColor=#FFCC99;" parent="51" connectable="0" vertex="1">
                    <mxGeometry x="1" relative="1" as="geometry"/>
                </mxCell>
                <mxCell id="60" value="" style="endArrow=none;html=1;edgeStyle=orthogonalEdgeStyle;entryX=0.5;entryY=0;entryDx=0;entryDy=0;exitX=0.5;exitY=1;exitDx=0;exitDy=0;" parent="1" source="30" target="50" edge="1">
                    <mxGeometry relative="1" as="geometry">
                        <mxPoint x="555" y="140.0000000000001" as="sourcePoint"/>
                        <mxPoint x="555" y="190.0000000000001" as="targetPoint"/>
                        <Array as="points">
                            <mxPoint x="545" y="250"/>
                            <mxPoint x="545" y="250"/>
                        </Array>
                    </mxGeometry>
                </mxCell>
                <mxCell id="61" value="1" style="edgeLabel;resizable=0;html=1;align=left;verticalAlign=bottom;fillColor=#FFCC99;" parent="60" connectable="0" vertex="1">
                    <mxGeometry x="-1" relative="1" as="geometry"/>
                </mxCell>
                <mxCell id="62" value="*" style="edgeLabel;resizable=0;html=1;align=right;verticalAlign=bottom;fillColor=#FFCC99;" parent="60" connectable="0" vertex="1">
                    <mxGeometry x="1" relative="1" as="geometry"/>
                </mxCell>
                <mxCell id="63" value="" style="endArrow=none;html=1;edgeStyle=orthogonalEdgeStyle;entryX=0;entryY=0.5;entryDx=0;entryDy=0;exitX=1;exitY=0.5;exitDx=0;exitDy=0;" parent="1" source="50" target="31" edge="1">
                    <mxGeometry relative="1" as="geometry">
                        <mxPoint x="440" y="115.00000000000011" as="sourcePoint"/>
                        <mxPoint x="500" y="115.00000000000011" as="targetPoint"/>
                    </mxGeometry>
                </mxCell>
                <mxCell id="64" value="1" style="edgeLabel;resizable=0;html=1;align=left;verticalAlign=bottom;fillColor=#FFCC99;" parent="63" connectable="0" vertex="1">
                    <mxGeometry x="-1" relative="1" as="geometry"/>
                </mxCell>
                <mxCell id="65" value="1" style="edgeLabel;resizable=0;html=1;align=right;verticalAlign=bottom;fillColor=#FFCC99;" parent="63" connectable="0" vertex="1">
                    <mxGeometry x="1" relative="1" as="geometry"/>
                </mxCell>
                <mxCell id="66" value="打ち手" style="html=1;" parent="1" vertex="1">
                    <mxGeometry x="650" y="130" width="110" height="50" as="geometry"/>
                </mxCell>
                <mxCell id="70" value="" style="endArrow=none;html=1;edgeStyle=orthogonalEdgeStyle;entryX=0.5;entryY=0;entryDx=0;entryDy=0;" parent="1" target="66" edge="1">
                    <mxGeometry relative="1" as="geometry">
                        <mxPoint x="600" y="100" as="sourcePoint"/>
                        <mxPoint x="760" y="100" as="targetPoint"/>
                    </mxGeometry>
                </mxCell>
                <mxCell id="71" value="1" style="edgeLabel;resizable=0;html=1;align=left;verticalAlign=bottom;fillColor=#FFCC99;" parent="70" connectable="0" vertex="1">
                    <mxGeometry x="-1" relative="1" as="geometry"/>
                </mxCell>
                <mxCell id="72" value="1" style="edgeLabel;resizable=0;html=1;align=right;verticalAlign=bottom;fillColor=#FFCC99;" parent="70" connectable="0" vertex="1">
                    <mxGeometry x="1" relative="1" as="geometry"/>
                </mxCell>
                <mxCell id="73" value="過去全ての&lt;br&gt;対戦結果" style="html=1;" vertex="1" parent="1">
                    <mxGeometry x="120" y="180" width="110" height="50" as="geometry"/>
                </mxCell>
                <mxCell id="74" value="" style="endArrow=none;html=1;edgeStyle=orthogonalEdgeStyle;entryX=0.5;entryY=0;entryDx=0;entryDy=0;exitX=0.5;exitY=1;exitDx=0;exitDy=0;" edge="1" parent="1" source="21" target="73">
                    <mxGeometry relative="1" as="geometry">
                        <mxPoint x="375" y="230" as="sourcePoint"/>
                        <mxPoint x="385" y="190" as="targetPoint"/>
                    </mxGeometry>
                </mxCell>
                <mxCell id="75" value="1" style="edgeLabel;resizable=0;html=1;align=left;verticalAlign=bottom;fillColor=#FFCC99;" connectable="0" vertex="1" parent="74">
                    <mxGeometry x="-1" relative="1" as="geometry"/>
                </mxCell>
                <mxCell id="76" value="*" style="edgeLabel;resizable=0;html=1;align=right;verticalAlign=bottom;fillColor=#FFCC99;" connectable="0" vertex="1" parent="74">
                    <mxGeometry x="1" relative="1" as="geometry"/>
                </mxCell>
            </root>
        </mxGraphModel>
    </diagram>
</mxfile>